<?xml version="1.0" encoding="utf-8"?>
<!-- Generator: Adobe Illustrator 28.3.0, SVG Export Plug-In . SVG Version: 6.00 Build 0)  -->
<svg version="1.1" xmlns="http://www.w3.org/2000/svg" xmlns:xlink="http://www.w3.org/1999/xlink" x="0px" y="0px"
	 viewBox="0 0 1815.48 956.25" enable-background="new 0 0 1815.48 956.25" xml:space="preserve">
<g id="With_strokes" display="none">
	<g display="inline">
		<g>
			<g>
				<path d="M838.45,637.92c12.13-10.76,26.85-18.23,41.84-24.15c14.93-6.04,30.82-8.66,46.49-11.9
					c15.18-3.02,31.88-5.77,47.21-7.48c15.82-1.75,31.71-2.99,47.61-2.89l0.07,1.3c-35.06,4.56-69.9,12.39-103.73,22.58
					c-18.28,6.42-40.06,12.75-58.85,17.87c-2.7,0.83-5.75,1.74-8.48,2.49c-3.83,1.04-7.53,2.35-11.51,3.31L838.45,637.92
					L838.45,637.92z"/>
			</g>
			<g>
				<path d="M840.12,624.03c6.61-11.26,15.63-20.83,25.42-29.38c7.07-6.16,16-11.5,24.29-15.92c7.88-4.23,17.66-9.38,25.82-13.13
					c4.37-1.95,13.32-5.66,17.79-7.37c12.01-4.49,24.24-8.29,36.66-11.1l0.39,1.24c-11.76,4.76-23.27,9.96-34.4,15.8
					c-16.24,8.56-33.16,18.54-47.56,29.96c-9.83,7.71-20.3,14.44-30.88,21.11c-5.42,3.43-10.82,6.79-16.62,9.73
					C841.02,624.97,840.12,624.03,840.12,624.03L840.12,624.03z"/>
			</g>
			<g>
				<path d="M849.93,650.77c10.42-7.87,22.42-13.25,34.74-17.39c8.89-2.98,19.18-4.49,28.53-5.4c8.9-0.89,19.9-1.9,28.88-2.23
					c4.78-0.13,14.47-0.12,19.25,0.01c12.81,0.46,25.56,1.63,38.12,3.79c0,0-0.12,1.29-0.12,1.29c-12.68-0.11-25.31,0.28-37.83,1.41
					c-18.28,1.69-37.74,4.42-55.41,9.45c-12.04,3.35-24.29,5.56-36.61,7.67c-6.32,1.09-12.6,2.12-19.08,2.62
					C850.41,651.98,849.93,650.77,849.93,650.77L849.93,650.77z"/>
			</g>
		</g>
		<path d="M526.89,909.58c-57.15,0-108.48-12.85-152.58-38.18c-39.77-22.85-72.31-55.73-94.52-95.4
			c-15.16-3.08-29.88-7.98-43.85-14.6c-6.55-3.1-10.19-10.21-8.89-17.33c0.71-3.9,2.81-7.27,5.74-9.62
			c-10.62-6.68-19.06-15.05-25.24-25.09c-3.29-5.33-3.16-12.09,0.33-17.3c2.66-3.97,6.9-6.48,11.51-7
			c-4.05-4.99-4.77-12.04-1.57-17.82c2.87-5.19,8.3-8.25,14-8.25c1.51,0,3.04,0.21,4.54,0.66c3.48,1.03,6.75,1.86,9.92,2.49
			c-0.6-7.84-0.9-15.75-0.9-23.66c0-2.41,0.04-4.86,0.1-7.29c0.01-0.35,0.03-0.67,0.04-1l0.02-0.37c0.06-1.73,0.13-3.78,0.26-5.9
			c0.02-0.29,0.04-0.57,0.06-0.84l0.02-0.25c0.14-2.35,0.29-4.31,0.44-6.16c0.02-0.2,0.04-0.4,0.06-0.6
			c0.21-2.39,0.43-4.54,0.67-6.61l0.04-0.31c1.25-10.79,3.23-21.56,5.88-32.16c-15.47-7.7-28.35-18.12-37.73-30.62
			c-15.6-20.78-20.91-45.27-26.04-68.95c-4.59-21.17-8.92-41.16-20.21-56.34c-3.81-5.13-4.21-12.04-1.01-17.57
			c2.88-4.98,8.18-7.98,13.84-7.98c0.63,0,1.26,0.04,1.9,0.11l118.23,14.11c17.94,2.14,35.88,4.29,53.81,6.42
			c3.8,0.45,7.26,0.89,10.49,1.48c41.99-29.07,91.6-47.95,143.96-54.74c0.01,0,0.03,0,0.04,0c3.4-0.44,6.89-0.84,10.37-1.18
			l0.68-0.07c1.48-0.14,2.97-0.27,4.46-0.4c0.78-0.07,1.57-0.13,2.36-0.19l0.56-0.04c1.13-0.09,2.26-0.17,3.4-0.25
			c1.99-0.13,3.99-0.24,6-0.34c0.61-0.03,1.22-0.05,1.82-0.08l0.73-0.03c1.58-0.06,3.18-0.12,4.78-0.16
			c0.76-0.02,1.52-0.04,2.28-0.06c2.65-0.05,4.87-0.08,6.99-0.08c3.18,0,6.5,0.05,10.15,0.15c0,0,1.5,0.03,1.9,0.05
			c0.46,0.02,2.12,0.08,2.12,0.08l0.69,0.03c1.05,0.04,2.11,0.08,3.15,0.13l1.38,0.08c1.51,0.08,3.01,0.16,4.51,0.25
			c0.36,0.02,1.66,0.12,1.66,0.12l0.19,0.01c1.34,0.09,2.68,0.19,4.01,0.29l0.21,0.02c1.87,0.15,3.73,0.32,5.58,0.5l1.03,0.11
			c1.59,0.16,3.16,0.32,4.72,0.5c0.04,0,0.08,0.01,0.13,0.02c1.87,0.21,3.72,0.44,5.57,0.69c0.05,0.01,0.14,0.02,0.21,0.03
			c1.82,0.24,3.63,0.49,5.43,0.76l0.46,0.07c1.75,0.26,3.43,0.53,5.1,0.81c0.01,0,0.04,0.01,0.05,0.01
			c9.19,1.53,18.3,3.46,27.1,5.74c0.04,0.01,0.08,0.02,0.12,0.03c8.65,2.25,17.21,4.89,25.53,7.88
			c17.3-12.41,37.52-25.6,60.09-35.26c16.55-7.09,35.23-13.36,57.09-19.18c10.7-2.85,53.08-12.12,54.88-12.51
			c1.14-0.25,2.28-0.37,3.42-0.37c4.49,0,8.84,1.9,11.91,5.32c3.85,4.29,5.09,10.32,3.25,15.78c-3.15,9.39-8.18,27.48-8.25,36.05
			c-0.36,46.73-16.66,90.98-45.13,123.54c1.01,1.67,1.93,3.38,2.75,5.14c2.54,5.43,4.36,9.99,5.7,14.24
			c0.51,1.14,1.02,2.29,1.52,3.44c22.07-4.64,41.83-8.25,58.94-10.77c7.87-4.98,16.58-8.77,25.94-11.28
			c8.12-2.18,16.38-3.28,24.54-3.28c32.22,0,58.47,17.18,65.33,42.76c4.29,15.99,0.6,33-10.38,47.89
			c-8.3,11.26-20.28,20.5-34.31,26.58c-0.45,0.98-0.92,1.97-1.42,2.95c-1.55,4.71-3.12,9.07-4.81,13.29
			c-6.35,15.92-14.99,31.74-25.68,47.03c-2.36,3.38-4.77,6.67-7.14,9.76c-2.1,2.75-4.38,5.6-6.76,8.48
			c-15.88,19.24-35.44,38.21-59.78,58.01c0,0,0,0,0,0c-16.16,13.14-33.17,25.71-50.63,37.4c-0.56,1.26-1.1,2.45-1.61,3.56
			c-7.31,15.92-17.61,30.68-30.6,43.86c-0.03,0.03-0.12,0.12-0.15,0.15c-4.52,4.58-9.49,9.07-14.76,13.35
			c-1.88,1.53-3.87,3.08-5.91,4.61c-4.58,3.45-9.48,6.81-14.55,10.01c-4.06,2.56-8.32,5.07-12.67,7.45c-4.5,2.47-9.21,4.88-14,7.15
			c-1.67,0.8-3.36,1.58-5.05,2.34c-2.9,1.31-5.87,2.59-8.85,3.83c-27.06,11.2-57.65,19.5-90.91,24.68l-1.34,0.21
			c-2.44,0.37-4.86,0.72-7.24,1.05l-1.12,0.15C553.56,909.09,535.48,909.58,526.89,909.58z"/>
		<path fill="#6B5341" d="M972.23,536.14c-6.49-24.22-37.96-36.83-70.27-28.17c-9.1,2.44-17.3,6.31-24.24,11.15
			c-21.76,3.08-47.41,7.96-74.6,13.93c-2.05-5.53-4.29-10.95-6.7-16.25c-1.31-4.38-3.15-8.76-5.19-13.13
			c-1.83-3.91-4.32-7.49-7.3-10.62c-0.55-0.91-1.1-1.82-1.66-2.72c32.45-31.31,49.48-77.05,49.84-122.24
			c0.11-14.37,9.08-41.03,9.08-41.03s-43.71,9.56-54.18,12.34c-18.66,4.97-37.14,10.82-54.91,18.42
			c-23.01,9.85-43.88,23.81-63.97,38.57c-10.24-4.05-20.92-7.54-32.03-10.42c-0.02-0.01-0.04-0.01-0.06-0.02
			c-8.34-2.16-16.91-3.98-25.72-5.45c-0.01,0-0.01,0-0.02,0c-1.6-0.27-3.21-0.52-4.82-0.76c-0.17-0.03-0.33-0.05-0.5-0.08
			c-1.74-0.26-3.49-0.5-5.24-0.74c-0.04-0.01-0.08-0.01-0.13-0.02c-1.78-0.23-3.57-0.45-5.36-0.66c-0.02,0-0.04-0.01-0.06-0.01
			c-1.49-0.17-2.99-0.33-4.49-0.48c-0.33-0.03-0.66-0.07-0.99-0.11c-1.78-0.17-3.57-0.33-5.37-0.48c-0.06,0-0.11-0.01-0.16-0.01
			c-1.33-0.11-2.67-0.2-4.01-0.29c-0.53-0.04-1.05-0.08-1.58-0.11c-1.43-0.09-2.87-0.17-4.31-0.24c-0.44-0.02-0.88-0.05-1.33-0.07
			c-1.22-0.06-2.45-0.1-3.67-0.15c-0.67-0.03-1.34-0.06-2.02-0.08c-0.6-0.02-1.21-0.03-1.82-0.04c-3.22-0.09-6.46-0.14-9.72-0.14
			c-2.23,0-4.45,0.03-6.66,0.08c-0.73,0.01-1.45,0.03-2.18,0.05c-1.52,0.04-3.04,0.09-4.56,0.15c-0.81,0.03-1.62,0.06-2.43,0.1
			c-1.92,0.09-3.83,0.2-5.73,0.32c-1.24,0.08-2.48,0.18-3.72,0.27c-0.77,0.06-1.55,0.12-2.32,0.18c-1.42,0.12-2.83,0.24-4.25,0.38
			c-0.22,0.02-0.43,0.04-0.65,0.07c-3.32,0.33-6.63,0.7-9.91,1.13c0,0-0.01,0-0.01,0l0,0c-53.64,6.95-102.58,26.89-142.7,56.14
			c-4.05-1.39-9.23-2.09-15.69-2.86c-26.9-3.2-53.81-6.42-80.71-9.63c-27.26-3.25-54.52-6.51-81.78-9.76l0,0
			c-3.19-0.38-6.37-0.76-9.56-1.14c26.78,36,19.27,89.35,46.2,125.23c11,14.65,26.77,24.76,44.12,31.05
			c-4.36,13.98-7.46,28.42-9.18,43.24c-0.01,0.08-0.02,0.16-0.03,0.24c-0.24,2.05-0.44,4.1-0.62,6.16c-0.02,0.2-0.04,0.39-0.06,0.59
			c-0.17,1.92-0.3,3.85-0.42,5.79c-0.02,0.34-0.05,0.67-0.07,1.01c-0.11,1.84-0.18,3.68-0.24,5.53c-0.01,0.43-0.04,0.86-0.05,1.29
			c-0.06,2.27-0.1,4.55-0.1,6.84c0,14.13,1,27.93,2.92,41.34c-11.09,0.15-21.18-1.48-32.49-4.83c11.98,10.57,23.62,23.2,37.66,31.34
			c0.22,0.87,0.43,1.75,0.65,2.62c-16.32-2.66-32.64-5.32-48.96-7.98c12.15,19.71,33.79,29.04,56.98,33.48
			c0.38,1.02,0.77,2.03,1.17,3.04c-12.3,2.79-23.61,8.41-36.53,9.46c15.01,7.11,31.03,12.06,47.43,14.69
			c41.41,79.77,125.19,131.94,236.67,131.94c11.94,0,29.12-0.96,49.01-3.64c0.36-0.05,0.73-0.1,1.09-0.15c2.3-0.31,4.63-0.65,7-1.01
			c0.43-0.07,0.85-0.13,1.28-0.2c27-4.2,57.97-11.54,87.26-23.66c2.81-1.16,5.61-2.37,8.38-3.63c1.6-0.72,3.19-1.46,4.77-2.21
			c4.46-2.12,8.85-4.36,13.16-6.72c4.02-2.21,7.97-4.53,11.83-6.96c4.63-2.92,9.13-6.01,13.47-9.27c1.84-1.38,3.65-2.79,5.43-4.24
			c4.74-3.86,9.28-7.93,13.55-12.26c0.02-0.02,0.04-0.03,0.05-0.05c11.19-11.36,20.6-24.38,27.45-39.31
			c0.69-1.51,1.45-3.18,2.24-4.96c0.38-0.86,0.77-1.75,1.18-2.66c18.39-12.13,36.18-25.17,53.28-39.07c0,0,0,0,0,0
			c20.67-16.81,40.58-35.24,57.53-55.78c2.18-2.64,4.32-5.32,6.4-8.03c2.31-3.02,4.55-6.09,6.73-9.2
			c9.56-13.67,17.72-28.22,23.93-43.78c1.78-4.45,3.38-8.97,4.85-13.52c1.23-2.36,2.35-4.79,3.33-7.32l-1.18,0.32
			c0.17-0.58,0.33-1.17,0.5-1.76C959.46,584.81,978.45,559.36,972.23,536.14z"/>
		<g>
			<path d="M1103.47,280.97c-9.65,4.62-39.02,20.56-47.4,25.59c9.23-33.97,18.88-64.18,14.26-74.67
				c-24.75-23.07-56.21-34.4-80.12-3.78c0.84-2.1,2.1-6.71,2.94-7.55c3.36-5.87,6.29-12.16-5.46-12.16
				c-15.94,0-36.91,8.39-42.79,18.46c-4.27,7.39-13.62,35.64-23.59,72.09c-17.7,23.48-42.69,58.37-50.23,58.37
				c-10.07-1.26,33.98-123.33,44.05-132.98c7.97-7.55,0.84-16.36-7.97-15.94c-11.75,0-27.27,0-39.01,9.65
				c-13.42-3.78-39.43-12.59-56.63-9.65c-26.91,4.44-51.98,54.74-64.42,100.57c-29.3,27.01-69.83,61.89-84.49,58.84
				c-12.59-2.52-9.65-37.34-3.36-49.5c60.82-12.16,83.06-53.27,84.32-73.83c1.26-20.14-40.27-36.08-58.73-36.08
				c-25.43,0-62.79,70.69-70.18,123.5c-16.77,17.86-32.51,33.39-37.2,33.39c-9.65-17.2,37.34-122.49,39.01-124.17
				c11.33-15.94-30.2-32.3-39.43-32.72c-13.01-0.84-31.04,15.94-45.72,29.37c22.23-67.12,46.56-130.04,54.95-136.75
				c9.65-7.97,4.2-15.1-6.29-14.68c-19.3,0.42-41.11,7.55-51.6,20.14c-9.52,11.48-42,118.98-60.45,199.33
				c-46.76,70.56-165.14,161.4-192.9,79.21c-22.23-66.7,65.44-210.16,128.37-258.82c-18.88,41.95-33.56,88.09-15.11,94.38
				c7.55,2.52,18.88,2.94,27.69-2.93c19.72-12.59-4.2-3.36,5.03-26.42c14.26-35.24,90.61-122.07,92.29-122.92
				c19.72-26-59.57-25.59-69.63-14.26c-1.26,2.1-2.52,3.36-4.2,5.45c-3.36,1.26-7.13,2.94-10.91,4.62
				c-9.23-9.65-26.01-12.59-39.01-5.03c-27.27,15.52-58.31,44.89-86.83,80.54c-84.74,57.89-174.93,128.36-195.48,149.76
				c-16.36,16.36-33.56,52.44,3.36,78.45c13.01-26.01,68.38-78.87,132.98-132.56c-36.07,78.45-43.21,160.66,22.24,204.3
				c13.84,9.22,28.94,13.42,44.05,13c54.1-1.2,112.29-57.11,150.19-109.39c-4.22,22.5-6.23,39.78-4.65,47.3
				c2.94,13.85,21.82,14.68,33.56,10.91c5.87-2.1,10.49-6.71,8.39-8.39c-10.91-9.65,15.94-85.57,23.49-104.03
				c6.29-15.94,34.81-53.69,49.08-55.79c-15.94,31.88-55.37,164.86-19.3,168.22c15.78,1.43,38.31-19.85,62.86-47.53
				c0.29,5.59,1.11,10.73,2.57,15.23c10.07,31.46,31.04,33.98,38.59,31.88c23.56,0,57.6-33.04,86.67-65.82
				c-2.22,13.26-2.99,25.11-1.95,33.94c2.1,19.3,13.42,33.14,38.59,31.88c15.1-0.42,30.62-20.56,44.47-35.23
				c-2.1,28.52,0,33.56,19.29,35.23c15.2,1.33,46.65-34.78,70.37-66.45c-12.4,50.33-23.64,107.46-25.07,147
				c-0.84,15.94-2.52,48.24,21.82,46.56c10.49-0.84,21.39-9.22,23.91-19.29c0.84-5.04-1.26-5.46-3.36-3.78
				c-26.43,20.56,37.75-202.19,41.53-213.1c3.36-10.08,34.82-69.22,51.6-57.89c5.87,4.2-6.29,52.44-17.2,88.09
				c-64.18,33.98-39.85,76.35-12.16,78.87c6.71,0.84,13.84,0.42,20.55-5.04c14.68-10.9,28.94-44.88,38.17-74.24
				c9.65-5.04,45.3-25.17,58.31-33.56C1113.95,284.33,1108.5,278.87,1103.47,280.97z M710.84,232.73
				c9.65,16.36-5.46,58.73-43.21,68.8C681.06,276.35,700.35,245.74,710.84,232.73z M826.61,333.83
				c-10.9,24.75-31.88,40.69-40.27,42.37c-18.46,3.78,24.33-167.8,70.47-141.37C849.68,251.19,832.06,305.72,826.61,333.83z
				 M991.04,357.74c-3.77,7.55-8.81,14.26-12.58,13c-4.62-2.1-0.84-8.81,5.45-15.94c4.2-4.62,9.65-9.65,14.68-13
				C997.75,344.32,994.82,351.44,991.04,357.74z"/>
			<path d="M1722.39,416.89c-11.75,10.07-93.55,92.71-115.78,88.1c-12.59-2.52-9.65-37.34-3.36-49.5
				c60.82-12.16,83.06-53.27,84.32-73.83c1.26-20.14-40.27-36.08-58.73-36.08c-25.34,0-62.54,70.2-70.11,122.95
				c-15.88,17.91-30.71,33.52-35.59,33.52c-6.29-11.74,28.1-121.23,56.21-190.45c49.92,0.42,108.23,2.52,108.65,2.94
				c2.1,0.42,3.77,1.67,5.45,0c4.62-3.36-10.49-23.91-18.46-25.59l-0.84,0.41c-2.52-1.25-41.95-5.45-85.16-2.51
				c9.23-22.24,13.84-31.88,14.26-32.3c0.84-0.84,1.67-1.68,1.67-2.52c2.94-2.1,2.1-5.45,1.68-7.97
				c-17.62-10.49-51.6,6.29-58.31,23.49c-2.94,5.45-5.87,8.81-10.91,21.81c-30.2,3.78-59.99,13.01-57.47,19.72
				c2.94,7.55,24.75,15.93,44.05,20.97c-10.81,31.3-22.7,69.36-31.09,104.35c-17.75,23.45-43.8,60.09-51.54,60.09
				c-10.07-1.26,33.98-123.33,44.05-132.98c7.97-7.55,0.84-16.36-7.97-15.94c-11.75,0-27.27,0-39.01,9.65
				c-13.42-3.78-39.43-12.59-56.63-9.65c-30.62,5.05-58.86,69.5-68.82,119.14c-17.11,19.46-33.73,37.33-38.97,37.33
				c-6.29-11.74,28.11-121.23,56.21-190.45c49.92,0.42,102.35-0.41,102.77,0c2.1,0.42,3.77,1.68,5.45,0
				c4.62-3.35-10.49-23.91-18.46-25.59l-0.84,0.42c-2.52-1.26-36.07-2.52-79.28,0.42c9.23-22.24,13.85-31.88,14.26-32.3
				c0.84-0.84,1.68-1.68,1.68-2.52c2.93-2.1,2.1-5.45,1.68-7.97c-17.62-10.49-51.6,6.29-58.31,23.49
				c-2.94,5.45-5.87,8.81-10.91,21.81c-7.97,0-19.71,0.84-32.72,1.68c17.2-37.34,53.69-93.55,54.54-94.39
				c0.84-0.84,1.67-1.26,1.67-2.1c2.1-2.1,2.1-4.62,1.68-6.71l-0.84-0.41l0.42-0.84c-10.07-7.55-59.98,0.84-68.38,11.75v1.26
				c-0.84,0.41-1.67,1.67-2.52,3.36c-20.55-8.81-50.34-14.27-71.31-6.71c-103.61,37.75-65.44,144.72-36.92,217.29
				c33.98,85.16-15.52,128.37-43.63,137.59c-126.68,31.46,5.04-118.72,14.68-125.01c6.29-7.55,21.81-20.97-1.26-21.39
				c-57.47,4.2-167.37,27.27-192.12,45.72c-11.75,8.81-22.65,27.27,1.26,54.95c19.71-32.3,91.03-49.92,154.79-67.53
				c-71.73,71.31-96.06,171.99,8.39,160.24c80.96-9.22,179.96-78.45,125.85-195.89c-24.33-52.86-63.34-115.36-18.04-150.6
				c11.33-8.81,25.59-10.48,39.85-0.42c-3.36,15.94-4.19,28.95-6.29,42.79c-15.1,0.84-38.59,0.42-38.59,20.56
				c0,13,13.85,26.01,28.94,26.42c13.85,0,28.53-7.55,36.91-28.52h36.5c-13.42,35.23-77.19,221.49-33.56,225.68
				c15.6,1.42,37.81-19.37,61.79-46.61c-0.3,5.48-0.23,10.46,0.28,14.72c2.1,19.3,13.42,33.14,38.59,31.88
				c15.1-0.42,30.63-20.56,44.47-35.23c-2.1,28.52,0,33.56,19.29,35.23c16.01,1.4,50.06-38.74,74.1-71.48
				c-7.05,39.72-6.45,69.85,10.63,71.48c15.41,1.4,37.25-18.85,60.88-45.57c0.36,4.99,1.14,9.61,2.46,13.69
				c10.07,31.46,31.04,33.98,38.59,31.88c36.5,0,98.16-79.28,127.52-114.1C1727.84,421.93,1726.58,416.89,1722.39,416.89z
				 M1654.85,369.91c9.65,16.36-5.45,58.73-43.2,68.8C1625.07,413.53,1644.36,382.92,1654.85,369.91z M1507.19,315.8
				c1.26-1.68,10.07-2.94,23.07-3.36c-1.26,3.36-2.52,6.71-3.36,10.07C1517.26,319.99,1508.45,317.89,1507.19,315.8z M1190.09,313.7
				c0.42-0.42,15.1-0.84,24.33-0.84C1211.48,334.25,1194.28,331.73,1190.09,313.7z M1396.88,471.01
				c-10.9,24.75-31.88,40.69-40.27,42.37c-18.46,3.78,24.33-167.8,70.47-141.37C1419.95,388.37,1402.33,442.9,1396.88,471.01z"/>
		</g>
		<g>
			<g>
				
					<path fill="#6B5341" stroke="#000000" stroke-width="13" stroke-linecap="round" stroke-linejoin="round" stroke-miterlimit="10" d="
					M841.18,327.06c0,0-8.97,26.66-9.08,41.03c-0.37,46.82-18.63,94.24-53.41,125.58c-1.75,1.58-3.87,3.21-6.19,2.86
					c-1.1-0.17-2.07-0.76-3.01-1.35c-40.93-25.41-85.91-51.31-121.94-83.36c26.51-20.06,53.6-40.74,84.56-54
					c17.77-7.61,36.24-13.46,54.91-18.42C797.47,336.62,841.18,327.06,841.18,327.06z"/>
				<path fill="#DDD4BB" d="M939.8,529.2c-5.2-12.44-21.96-14.06-35.4-13.07c-25.77,1.91-61.91,8.27-101.29,16.91
					c-34.95-94.47-124.27-157.02-248.42-157.02c-161.99,0-293.3,117.5-293.3,262.45s103.51,255.09,265.5,255.09
					c51.38,0,199.88-17.8,243.74-113.31c1.03-2.25,2.18-4.82,3.41-7.63c18.39-12.13,36.19-25.17,53.28-39.07
					c39.3-31.96,75.82-69.75,94.59-116.8c8.68-21.77,13.31-44.9,17.9-67.88C941.11,542.36,942.38,535.36,939.8,529.2z"/>
				<g>
					<path fill="#6B5341" d="M499,829.42c-15.55-2.99-30.91-7.87-44.41-16.15c-16.27-9.98-29.29-24.54-40.18-40.22
						c-16.75-24.13-29.18-52.38-28.91-81.75c0.17-18.98,6.48-38.34,18.04-53.16c4.14-5.31-0.32-12.95-7-12.07
						c-44.77,5.9-92.21-8-125.78-38.4c-1.06-0.96-2.15-1.89-3.25-2.81c-4.02,17.31-6.14,35.25-6.14,53.63
						c0,144.95,103.51,255.09,265.5,255.09c51.38,0,199.88-17.8,243.74-113.31c1.03-2.25,2.18-4.82,3.41-7.63
						c0.86-0.57,1.72-1.15,2.58-1.72c-58.31,28.18-118.6,52.45-177.32,59.11C565.94,833.81,531.96,835.75,499,829.42z"/>
				</g>
				<g>
					<path fill="#6B5341" d="M581,425.68c8.24,8.51,15.72,17.79,22.07,27.8c3.9,6.15,9.6,25.93,15.53,29.21
						c13.34,7.38,21.67-47.93,22.85-59.76c1.17-11.85,1.11-23.86-0.44-35.63c-26.39-7.35-55.27-11.26-86.32-11.26
						c-14.41,0-28.56,0.95-42.41,2.74c4.43,1.96,8.82,4,13.14,6.21C545.92,395.47,564.96,409.11,581,425.68z"/>
				</g>
				<path fill="#6B5341" d="M560.26,515.62c-12.62-7.39-26.1-15.01-40.72-14.67c-19.78,0.45-37.35,17.01-41.03,36.45
					c-3.68,19.44,5.49,40.17,21.08,52.36c13.71,10.72,31.52,15.22,48.92,15.35c17.4,0.13,34.57-3.82,51.33-8.52
					c15.7-4.4,56.89-16.45,35.19-37.14C615.93,541.25,583.09,528.98,560.26,515.62z"/>
				<g>
					<path fill="#6B5341" d="M791.22,503.67c-7.63-16.32-26.86-26.96-44.41-22.9c-12.97,3-23.14,12.76-32.61,22.12
						c-17.13,16.94-43.33,35.16-56.06,55.51c-7.36,11.76,0.96,13.12,11.05,16.35c38.16-12.12,85.04-22.45,126.48-32.94
						C801.41,529.02,797.13,516.32,791.22,503.67z"/>
				</g>
				<g>
					<g>
						<path d="M702.11,522.01c17.02-18.68,42.15-29.06,66.35-33.64c-16.94,6.32-32.58,15.69-45.36,28.2
							c-4.1,4.08-7.74,8.5-10.53,13.15c-1.85,3.09-5.86,4.1-8.96,2.25C700.11,529.93,699.38,525,702.11,522.01L702.11,522.01z"/>
					</g>
				</g>
				<g>
					<path d="M587.49,599.78c42.24-17.75,85.66-32.61,129.33-46.41c43.84-13.71,88.03-26.12,133.01-35.65
						c18.26-3.7,36.36-7.01,55.07-8.54c10.48-0.6,20.94-0.32,30.79,5.17c8.36,4.62,13.21,14.1,12.86,23.45
						c-0.07,7.37-2.13,14.61-3.36,21.68c-2.7,13.69-5.65,27.22-9.66,40.7c-20.86,72.26-82.34,127.01-143.66,166.43
						c-62.54,39.01-132.64,64.66-203.72,82.83c68.72-24.27,136.5-52.25,197.23-92.82c29.8-20.13,57.77-43.62,82.15-69.98
						c24.14-26.19,43.75-56.42,53.69-90.76c3.88-12.82,6.77-26.15,9.54-39.34c1.18-7.04,4.53-17.04,2.74-23.52
						c-3.21-10.2-18.43-10.43-27.72-10.07c-17.81,1.22-35.85,4.03-53.52,7.26c-35.82,6.49-71.35,15.11-106.67,24.02
						C692.71,567.93,639.43,582.8,587.49,599.78L587.49,599.78z"/>
				</g>
				<g>
					<path stroke="#000000" stroke-width="11" stroke-linecap="round" stroke-linejoin="round" stroke-miterlimit="10" d="
						M684.55,539.74l4.45,22.05c14.54-4.09,29.57-8.16,44.71-12.07l-7.2-36.71L684.55,539.74z"/>
				</g>
				
					<polygon fill="#FFFFFF" stroke="#000000" stroke-width="6" stroke-linecap="round" stroke-linejoin="round" stroke-miterlimit="10" points="
					769.31,695.96 795.66,746.46 800.93,685.86 				"/>
				<g>
					<path d="M936.14,598.29c-0.67,1.43-1.99,4.47-2.62,5.82c-0.55,1.06-2.46,4.44-3.06,5.57c-0.81,1.3-2.68,4.07-3.46,5.29
						c-0.75,0.97-3.01,3.98-3.81,5c-1.12,1.23-3.04,3.57-4.11,4.7c-18.98,20.08-44.48,32.32-69.32,43.32
						c-119.12,53.41-253.34,72.77-382.7,55.86c103.28,10.73,208.79-1.4,306.77-35.6c24.29-8.42,48.57-18.31,71.67-29.48
						c16.13-7.65,32.3-15.7,46.61-26.27c1.78-1.24,4.21-3.25,5.92-4.58c2.62-2.2,5.79-5.06,8.23-7.47c0,0,2.51-2.67,2.51-2.67
						s1.25-1.34,1.25-1.34c1.11-1.26,2.45-3,3.49-4.2c0,0,2.12-2.93,2.12-2.93l1.06-1.46c0.86-1.36,2.03-3.29,2.83-4.58
						c0,0,1.63-3.17,1.63-3.17l0.82-1.58c0.65-1.52,1.45-3.5,2.06-4.92C924.02,593.59,936.14,598.29,936.14,598.29L936.14,598.29z"
						/>
				</g>
				<g>
					<path d="M428.46,745.09c29.16-10.56,52.38-33.95,62.79-63.15C487.95,713.63,460.12,741.59,428.46,745.09L428.46,745.09z"/>
				</g>
				<g>
					<path stroke="#000000" stroke-width="11" stroke-linecap="round" stroke-linejoin="round" stroke-miterlimit="10" d="
						M574.79,596.07L574.79,596.07c-12.75,0-23.08-10.33-23.08-23.08v-48.03l46.32,18.16l-0.17,29.86
						C597.86,585.74,587.53,596.07,574.79,596.07z"/>
					<g>
						<path d="M568.61,538.7c-15.77-16.69-40.27-25.98-62.8-29.82c18.43-0.29,37.39,3,54.59,10.37c5.86,2.57,11.62,5.72,17,9.87
							c2.9,2.19,3.46,6.33,1.24,9.2C576.2,541.53,571.27,541.71,568.61,538.7L568.61,538.7z"/>
					</g>
				</g>
				<path fill="none" stroke="#000000" stroke-width="13" stroke-miterlimit="10" d="M939.8,529.2
					c-5.2-12.44-21.96-14.06-35.4-13.07c-25.77,1.91-61.91,8.27-101.29,16.91c-34.95-94.47-124.27-157.02-248.42-157.02
					c-161.99,0-293.3,117.5-293.3,262.45s103.51,255.09,265.5,255.09c51.38,0,199.88-17.8,243.74-113.31
					c1.03-2.25,2.18-4.82,3.41-7.63c18.39-12.13,36.19-25.17,53.28-39.07c39.3-31.96,75.82-69.75,94.59-116.8
					c8.68-21.77,13.31-44.9,17.9-67.88C941.11,542.36,942.38,535.36,939.8,529.2z"/>
				
					<path fill="#2B1D0F" stroke="#000000" stroke-width="13" stroke-linecap="round" stroke-linejoin="round" stroke-miterlimit="10" d="
					M181.83,411.53c26.78,36,19.27,89.35,46.2,125.23c16.7,22.25,44.39,34.03,71.95,37.85c1.99,0.28,67.29-48.8,71.44-53.88
					c14.16-17.32-13.36-32.16-3.95-52.7c11.37-24.83,7.44-33.47-13.58-35.97c-26.9-3.2-53.81-6.42-80.71-9.63
					C242.73,418.79,212.28,415.16,181.83,411.53z"/>
				
					<ellipse transform="matrix(0.9659 -0.259 0.259 0.9659 -111.7339 255.44)" fill="#BF57A1" stroke="#000000" stroke-width="13" stroke-miterlimit="10" cx="913.71" cy="551.83" rx="60.58" ry="45.4"/>
				<g>
					
						<path fill="#6B5341" stroke="#000000" stroke-width="13" stroke-linecap="round" stroke-linejoin="round" stroke-miterlimit="10" d="
						M353.88,432.06c-26.91-3.2-53.81-6.42-80.71-9.63c-27.26-3.25-54.52-6.51-81.78-9.76l2.67,2.54
						c19.1,14.36,42.69,21.21,65.88,26.99c23.19,5.78,46.94,10.91,67.8,22.57c13.06,7.3,34.5,43.4,42.35,55.97
						c8.11-9.96,10.54-40.84,11.21-57.13C382.44,436.32,374.91,434.56,353.88,432.06z"/>
				</g>
				<g>
					<path fill="#DDD4BB" d="M305.65,585.45c1.84-16.99-1.37-34.49-9.12-49.72c13.89,17.82,39.57,25.38,60.89,17.93
						c-16.71-6.04-31.55-17.14-42.09-31.45c8.15-0.06,15.64,4.1,23.37,6.69c15.46,5.17,32.22,4.07,48.47,2.92"/>
					<path d="M305.65,585.45c-0.38-12.82-2.84-25.08-7.73-36.72c-3.04-8.08-20.28-35.88-24.67-43.83
						c1.43,1.52,28.9,30.1,29.54,30.79c0,0,2.86,2.53,2.86,2.53l3.03,2.31c13.33,9.28,31.22,12.42,46.6,7.01
						c0,0-0.07,12.21-0.07,12.21c-17.89-6.4-33.69-18.53-44.4-34.21c0,0-6.37-9.29-6.37-9.29l10.85,0.35
						c10.01,0.18,18.49,5.83,27.49,9.1c14.23,5,29.44,5.13,44.4,6.12c-15.27,3.21-31.18,5.45-46.72,2.08
						c-8.46-1.7-16.46-6.32-25.09-6.07c0,0,4.48-8.94,4.48-8.94c7.76,9.72,17.54,17.79,28.49,23.65c6.97,3.88,20.7,8.44,28.23,11.37
						c0,0-17.02,5.88-17.02,5.88c-6.03,2.08-12.36,3.1-18.64,3.06c-14.04-0.01-27.91-5.07-38.63-14.08c0,0-3.42-3.13-3.42-3.13
						s-3.12-3.42-3.12-3.42s-2.82-3.67-2.82-3.67l7.67-4.88C307.72,549.74,309.87,568.44,305.65,585.45L305.65,585.45z"/>
				</g>
				<g>
					<path d="M887.03,541.16c-3.39,3.67-6.13,7.37-8.25,11.71c-1.1,2.35-2.44,5.13-2.14,7.57c1.59,9.68,15.82,11.54,23.72,13.94
						c6.18,1.57,12.5,2.72,19.13,4.03c-6.46,2.05-13.3,2.6-20.08,2.19c-10.43-0.9-23.6-2.97-28.55-13.75
						c-2.29-4.73-1.27-10.67,1.93-14.74C876.24,547.14,881.31,543,887.03,541.16L887.03,541.16z"/>
				</g>
			</g>
			<g>
				<path fill="#6B5341" d="M273.04,679.37c-14.75,1.32-27.02-0.17-41.22-4.37c13.99,12.35,27.51,27.51,44.93,35.04
					c-18.53-3.02-37.05-6.04-55.58-9.06c13.89,22.54,40.21,31.51,67.06,35.1c-15.97,1.3-29.47,9.57-45.44,10.87
					c18.4,8.71,38.32,14.2,58.58,16.12"/>
				<path d="M273.04,679.37c-13.89,2.85-28.39,2.07-42.14-1.25c0,0,3.08-5.56,3.08-5.56c11.06,8.78,21.29,18.76,33.17,26.29
					c3.81,2.42,7.76,4.49,11.81,6.11l41.95,16.73l-45.03-6.2c-12.98-1.76-28.94-4.04-41.81-6.02c-4.64-0.71-9.28-1.39-13.91-2.15
					c0,0,6.52-9.74,6.52-9.74c13.17,21.16,38.89,28.99,62.34,32.77c0,0,52.72,8.68,52.72,8.68l-53.02,2.78
					c-10.75,0.52-22.2,5.17-33.23,7.56c-3.99,0.89-8.14,1.5-12.34,1.66l1.43-7.8c16.63,8.87,34.61,15.19,53.07,19.06
					c0,0,3.75,0.77,3.75,0.77c-4.83,0.01-10.56-0.27-15.36-0.8c-10.27-1.07-20.44-3.19-30.32-6.26c-8.58-2.46-20-7.67-28.34-11.14
					c7.1-1.08,19.06-2.06,25.79-4.44c11.38-3.55,22.42-8.9,34.62-10.09c0,0-0.3,11.46-0.3,11.46c-6.67-0.71-13.35-1.85-19.99-3.42
					c-20.36-4.74-40.73-15.49-51.79-34.01c0,0-7.34-12-7.34-12c18.03,2.88,37.5,6.31,55.45,9.62c0,0,13.84,2.61,13.84,2.61
					l-3.08,10.53c-18.14-8.41-31.02-23.98-44.89-37.68c0,0-10.97-10.71-10.97-10.71c6.4,2.29,17.37,6.59,23.76,8.32
					C252.38,677.96,262.69,679.25,273.04,679.37L273.04,679.37z"/>
			</g>
		</g>
		<g>
			<path d="M815.04,615.1c-6.79,1.86-13.43,3.4-20.19,5.08c-1.1,0.35-23.57,6.09-25.52,6.6c-15.1,4.04-30.62,6.47-45.76,10.38
				c-30.33,8.18-60.6,17.69-89.52,30.05c0,0-0.59-1.16-0.59-1.16c20.56-12.11,42.45-21.89,64.63-30.67
				c14.53-5.54,30.49-11.02,45.22-15.83c15.33-4.84,31.4-7.34,47.49-7.72c8.1-0.21,16.28,0.36,24.23,1.96
				C815.02,613.8,815.04,615.1,815.04,615.1L815.04,615.1z"/>
		</g>
		<g>
			<path d="M806.26,603.91c-15.82,0.6-31.58-0.35-47.31-1.62c-8.94-0.82-18.9-2.49-27.88-2.93c-11.76-0.58-25.8-0.58-37.56-0.02
				c-12.56,0.57-25.12,1.89-37.67,3.7c0,0-0.29-1.27-0.29-1.27c15.06-4.77,31.04-8.15,46.77-10.34c12.24-1.74,26.18-2.43,38.48-2.85
				c5.71-0.15,13.77-0.33,19.39,0.2c9.67,0.93,19.2,3.09,28.44,6.05c6.19,2.12,12.23,4.55,17.94,7.8
				C806.57,602.65,806.26,603.91,806.26,603.91L806.26,603.91z"/>
		</g>
		<g>
			<path d="M811.78,631.97c-14.31,6.59-29.37,11.8-44.32,16.63c-8.57,2.67-18.41,4.94-26.87,7.98c-11.08,3.97-24.05,9.35-34.7,14.38
				c-11.38,5.34-22.48,11.37-33.38,17.86c0,0-0.75-1.06-0.75-1.06c12.08-10.17,25.54-19.43,39.24-27.47c0,0,8.39-4.74,8.39-4.74
				c4.26-2.26,12.91-6.57,17.28-8.59c5.08-2.32,12.46-5.7,17.67-7.95c8.98-3.73,18.43-6.12,28.03-7.56
				c9.68-1.34,19.48-1.94,29.22-0.75C811.58,630.69,811.78,631.97,811.78,631.97L811.78,631.97z"/>
		</g>
	</g>
</g>
<g id="OutLined">
	<g>
		<g>
			<path d="M838.45,637.92c12.13-10.77,26.85-18.23,41.84-24.15c14.93-6.04,30.82-8.66,46.49-11.9c15.18-3.02,31.88-5.77,47.21-7.48
				c15.82-1.75,31.71-2.99,47.61-2.89l0.07,1.3c-35.06,4.56-69.9,12.39-103.73,22.58c-18.28,6.42-40.06,12.75-58.85,17.87
				c-2.7,0.83-5.75,1.74-8.48,2.49c-3.83,1.04-7.53,2.35-11.51,3.31C839.09,639.05,838.45,637.92,838.45,637.92L838.45,637.92z"/>
			<path d="M840.12,624.03c6.61-11.26,15.63-20.83,25.42-29.38c7.07-6.16,16-11.5,24.29-15.92c7.88-4.23,17.66-9.38,25.82-13.13
				c4.37-1.95,13.32-5.66,17.79-7.37c12.01-4.49,24.24-8.29,36.66-11.1c0,0,0.39,1.24,0.39,1.24c-11.76,4.76-23.27,9.96-34.4,15.8
				c-16.24,8.56-33.16,18.54-47.56,29.96c-9.83,7.71-20.3,14.44-30.88,21.11c-5.42,3.43-10.82,6.79-16.62,9.73
				C841.02,624.97,840.12,624.03,840.12,624.03L840.12,624.03z"/>
			<path d="M849.93,650.77c10.42-7.87,22.42-13.25,34.74-17.39c8.89-2.98,19.18-4.49,28.53-5.4c8.9-0.89,19.9-1.9,28.88-2.23
				c4.78-0.13,14.47-0.12,19.25,0.01c12.81,0.46,25.56,1.63,38.12,3.79c0,0-0.12,1.29-0.12,1.29c-12.68-0.11-25.31,0.28-37.83,1.41
				c-18.28,1.69-37.74,4.42-55.41,9.45c-12.04,3.35-24.29,5.56-36.61,7.67c-6.32,1.09-12.6,2.12-19.08,2.62
				C850.41,651.98,849.93,650.77,849.93,650.77L849.93,650.77z"/>
		</g>
		<path d="M526.89,909.58c-57.15,0-108.48-12.85-152.58-38.18c-39.77-22.85-72.31-55.73-94.52-95.4
			c-15.16-3.08-29.88-7.98-43.85-14.6c-6.55-3.1-10.19-10.21-8.89-17.33c0.71-3.9,2.81-7.27,5.74-9.62
			c-10.62-6.68-19.06-15.05-25.24-25.09c-3.29-5.33-3.16-12.09,0.33-17.3c2.66-3.97,6.9-6.48,11.51-7
			c-4.05-4.99-4.77-12.04-1.57-17.82c2.87-5.19,8.3-8.25,14-8.25c1.51,0,3.04,0.21,4.54,0.66c3.48,1.03,6.75,1.86,9.92,2.49
			c-0.6-7.84-0.9-15.75-0.9-23.66c0-2.41,0.04-4.86,0.1-7.29c0.01-0.35,0.03-0.67,0.04-1l0.02-0.37c0.06-1.73,0.13-3.78,0.26-5.9
			c0.02-0.29,0.04-0.57,0.06-0.84l0.02-0.25c0.14-2.35,0.29-4.31,0.44-6.16c0.02-0.2,0.04-0.4,0.06-0.6
			c0.21-2.39,0.43-4.54,0.67-6.61l0.04-0.31c1.25-10.79,3.23-21.56,5.88-32.16c-15.47-7.7-28.35-18.12-37.73-30.62
			c-15.6-20.78-20.91-45.27-26.04-68.95c-4.59-21.17-8.92-41.16-20.21-56.34c-3.81-5.13-4.21-12.04-1.01-17.57
			c2.88-4.98,8.18-7.98,13.84-7.98c0.63,0,1.26,0.04,1.9,0.11l118.23,14.11c17.94,2.14,35.88,4.29,53.81,6.42
			c3.8,0.45,7.26,0.89,10.49,1.48c41.99-29.07,91.6-47.95,143.96-54.74c0.01,0,0.03,0,0.04,0c3.4-0.44,6.89-0.84,10.37-1.18
			l0.68-0.07c1.48-0.14,2.97-0.27,4.46-0.4c0.78-0.07,1.57-0.13,2.36-0.19l0.56-0.04c1.13-0.09,2.26-0.17,3.4-0.25
			c1.99-0.13,3.99-0.24,6-0.34c0.61-0.03,1.22-0.05,1.82-0.08l0.73-0.03c1.58-0.06,3.18-0.12,4.78-0.16
			c0.76-0.02,1.52-0.04,2.28-0.06c2.65-0.05,4.87-0.08,6.99-0.08c3.18,0,6.5,0.05,10.15,0.15c0,0,1.5,0.03,1.9,0.05
			c0.46,0.02,2.12,0.08,2.12,0.08l0.69,0.03c1.05,0.04,2.11,0.08,3.15,0.13l1.38,0.08c1.51,0.08,3.01,0.16,4.51,0.25
			c0.36,0.02,1.66,0.12,1.66,0.12l0.19,0.01c1.34,0.09,2.68,0.19,4.01,0.29l0.21,0.02c1.87,0.15,3.73,0.32,5.58,0.5l1.03,0.11
			c1.59,0.16,3.16,0.32,4.72,0.5c0.04,0,0.08,0.01,0.13,0.02c1.87,0.21,3.72,0.44,5.57,0.69c0.05,0.01,0.14,0.02,0.21,0.03
			c1.82,0.24,3.63,0.49,5.43,0.76l0.46,0.07c1.75,0.26,3.43,0.53,5.1,0.81c0.01,0,0.04,0.01,0.05,0.01
			c9.19,1.53,18.3,3.46,27.1,5.74c0.04,0.01,0.08,0.02,0.12,0.03c8.65,2.25,17.21,4.89,25.53,7.88
			c17.3-12.41,37.52-25.6,60.09-35.26c16.55-7.09,35.23-13.36,57.09-19.18c10.7-2.85,53.08-12.12,54.88-12.51
			c1.14-0.25,2.28-0.37,3.42-0.37c4.49,0,8.84,1.9,11.91,5.32c3.85,4.29,5.09,10.32,3.25,15.78c-3.15,9.39-8.18,27.48-8.25,36.05
			c-0.36,46.73-16.66,90.98-45.13,123.54c1.01,1.67,1.93,3.38,2.75,5.14c2.54,5.43,4.36,9.99,5.7,14.24
			c0.51,1.14,1.02,2.29,1.52,3.44c22.07-4.64,41.83-8.25,58.94-10.77c7.87-4.98,16.58-8.77,25.94-11.28
			c8.12-2.18,16.38-3.28,24.54-3.28c32.22,0,58.47,17.18,65.33,42.76c4.29,15.99,0.6,33-10.38,47.89
			c-8.3,11.26-20.28,20.5-34.31,26.58c-0.45,0.98-0.92,1.97-1.42,2.95c-1.55,4.71-3.12,9.07-4.81,13.29
			c-6.35,15.92-14.99,31.74-25.68,47.03c-2.36,3.38-4.77,6.67-7.14,9.76c-2.1,2.75-4.38,5.6-6.76,8.48
			c-15.88,19.24-35.44,38.21-59.78,58.01c0,0,0,0,0,0c-16.16,13.14-33.17,25.71-50.63,37.4c-0.56,1.26-1.1,2.45-1.61,3.56
			c-7.31,15.92-17.61,30.68-30.6,43.86c-0.03,0.03-0.12,0.12-0.15,0.15c-4.52,4.58-9.49,9.07-14.76,13.35
			c-1.88,1.53-3.87,3.08-5.91,4.61c-4.58,3.45-9.48,6.81-14.55,10.01c-4.06,2.56-8.32,5.07-12.67,7.45c-4.5,2.47-9.21,4.88-14,7.15
			c-1.67,0.8-3.36,1.58-5.05,2.34c-2.9,1.31-5.87,2.59-8.85,3.83c-27.06,11.2-57.65,19.5-90.91,24.68l-1.34,0.21
			c-2.44,0.37-4.86,0.72-7.24,1.05l-1.12,0.15C553.56,909.09,535.48,909.58,526.89,909.58z"/>
		<path fill="#6B5341" d="M972.23,536.14c-6.49-24.22-37.96-36.83-70.27-28.17c-9.1,2.44-17.3,6.31-24.24,11.15
			c-21.76,3.08-47.41,7.96-74.6,13.93c-2.05-5.53-4.29-10.95-6.7-16.25c-1.31-4.38-3.15-8.76-5.19-13.13
			c-1.83-3.91-4.32-7.49-7.3-10.62c-0.55-0.91-1.1-1.82-1.66-2.72c32.45-31.31,49.48-77.05,49.84-122.24
			c0.11-14.37,9.08-41.03,9.08-41.03s-43.71,9.56-54.18,12.34c-18.66,4.97-37.14,10.82-54.91,18.42
			c-23.01,9.85-43.88,23.81-63.97,38.57c-10.24-4.05-20.92-7.54-32.03-10.42c-0.02-0.01-0.04-0.01-0.06-0.02
			c-8.34-2.16-16.91-3.98-25.72-5.45c-0.01,0-0.01,0-0.02,0c-1.6-0.27-3.21-0.52-4.82-0.76c-0.17-0.03-0.33-0.05-0.5-0.08
			c-1.74-0.26-3.49-0.5-5.24-0.74c-0.04-0.01-0.08-0.01-0.13-0.02c-1.78-0.23-3.57-0.45-5.36-0.66c-0.02,0-0.04-0.01-0.06-0.01
			c-1.49-0.17-2.99-0.33-4.49-0.48c-0.33-0.03-0.66-0.07-0.99-0.11c-1.78-0.17-3.57-0.33-5.37-0.48c-0.06,0-0.11-0.01-0.16-0.01
			c-1.33-0.11-2.67-0.2-4.01-0.29c-0.53-0.04-1.05-0.08-1.58-0.11c-1.43-0.09-2.87-0.17-4.31-0.24c-0.44-0.02-0.88-0.05-1.33-0.07
			c-1.22-0.06-2.45-0.1-3.67-0.15c-0.67-0.03-1.34-0.06-2.02-0.08c-0.6-0.02-1.21-0.03-1.82-0.04c-3.22-0.09-6.46-0.14-9.72-0.14
			c-2.23,0-4.45,0.03-6.66,0.08c-0.73,0.01-1.45,0.03-2.18,0.05c-1.52,0.04-3.04,0.09-4.56,0.15c-0.81,0.03-1.62,0.06-2.43,0.1
			c-1.92,0.09-3.83,0.2-5.73,0.32c-1.24,0.08-2.48,0.18-3.72,0.27c-0.77,0.06-1.55,0.12-2.32,0.18c-1.42,0.12-2.83,0.24-4.25,0.38
			c-0.22,0.02-0.43,0.04-0.65,0.07c-3.32,0.33-6.63,0.7-9.91,1.13c0,0-0.01,0-0.01,0l0,0c-53.64,6.95-102.58,26.89-142.7,56.14
			c-4.05-1.39-9.23-2.09-15.69-2.86c-26.9-3.2-53.81-6.42-80.71-9.63c-27.26-3.25-54.52-6.51-81.78-9.76l0,0
			c-3.19-0.38-6.37-0.76-9.56-1.14c26.78,36,19.27,89.35,46.2,125.23c11,14.65,26.77,24.76,44.12,31.05
			c-4.36,13.98-7.46,28.42-9.18,43.24c-0.01,0.08-0.02,0.16-0.03,0.24c-0.24,2.05-0.44,4.1-0.62,6.16c-0.02,0.2-0.04,0.39-0.06,0.59
			c-0.17,1.92-0.3,3.85-0.42,5.79c-0.02,0.34-0.05,0.67-0.07,1.01c-0.11,1.84-0.18,3.68-0.24,5.53c-0.01,0.43-0.04,0.86-0.05,1.29
			c-0.06,2.27-0.1,4.55-0.1,6.84c0,14.13,1,27.93,2.92,41.34c-11.09,0.15-21.18-1.48-32.49-4.83c11.98,10.57,23.62,23.2,37.66,31.34
			c0.22,0.87,0.43,1.75,0.65,2.62c-16.32-2.66-32.64-5.32-48.96-7.98c12.15,19.71,33.79,29.04,56.98,33.48
			c0.38,1.02,0.77,2.03,1.17,3.04c-12.3,2.79-23.61,8.41-36.53,9.46c15.01,7.11,31.03,12.06,47.43,14.69
			c41.41,79.77,125.19,131.94,236.67,131.94c11.94,0,29.12-0.96,49.01-3.64c0.36-0.05,0.73-0.1,1.09-0.15c2.3-0.31,4.63-0.65,7-1.01
			c0.43-0.07,0.85-0.13,1.28-0.2c27-4.2,57.97-11.54,87.26-23.66c2.81-1.16,5.61-2.37,8.38-3.63c1.6-0.72,3.19-1.46,4.77-2.21
			c4.46-2.12,8.85-4.36,13.16-6.72c4.02-2.21,7.97-4.53,11.83-6.96c4.63-2.92,9.13-6.01,13.47-9.27c1.84-1.38,3.65-2.79,5.43-4.24
			c4.74-3.86,9.28-7.93,13.55-12.26c0.02-0.02,0.04-0.03,0.05-0.05c11.19-11.36,20.6-24.38,27.45-39.31
			c0.69-1.51,1.45-3.18,2.24-4.96c0.38-0.86,0.77-1.75,1.18-2.66c18.39-12.13,36.18-25.17,53.28-39.07c0,0,0,0,0,0
			c20.67-16.81,40.58-35.24,57.53-55.78c2.18-2.64,4.32-5.32,6.4-8.03c2.31-3.02,4.55-6.09,6.73-9.2
			c9.56-13.67,17.72-28.22,23.93-43.78c1.78-4.45,3.38-8.97,4.85-13.52c1.23-2.36,2.35-4.79,3.33-7.32l-1.18,0.32
			c0.17-0.58,0.33-1.17,0.5-1.76C959.46,584.81,978.45,559.36,972.23,536.14z"/>
		<path d="M1722.39,416.89c-11.75,10.07-93.55,92.71-115.78,88.1c-12.59-2.52-9.65-37.34-3.36-49.5
			c60.82-12.16,83.06-53.27,84.32-73.83c1.26-20.14-40.27-36.08-58.73-36.08c-25.34,0-62.54,70.2-70.11,122.95
			c-15.88,17.91-30.71,33.52-35.59,33.52c-6.29-11.74,28.1-121.23,56.21-190.45c49.92,0.42,108.23,2.52,108.65,2.94
			c2.1,0.42,3.77,1.67,5.45,0c4.62-3.36-10.49-23.91-18.46-25.59l-0.84,0.41c-2.52-1.25-41.95-5.45-85.16-2.51
			c9.23-22.24,13.84-31.88,14.26-32.3c0.84-0.84,1.67-1.68,1.67-2.52c2.94-2.1,2.1-5.45,1.68-7.97
			c-17.62-10.49-51.6,6.29-58.31,23.49c-2.94,5.45-5.87,8.81-10.91,21.81c-30.2,3.78-59.99,13.01-57.47,19.72
			c2.94,7.55,24.75,15.93,44.05,20.97c-10.81,31.3-22.7,69.36-31.09,104.35c-17.75,23.45-43.8,60.09-51.54,60.09
			c-10.07-1.26,33.98-123.33,44.05-132.98c7.97-7.55,0.84-16.36-7.97-15.94c-11.75,0-27.27,0-39.01,9.65
			c-13.42-3.78-39.43-12.59-56.63-9.65c-30.62,5.05-58.86,69.5-68.82,119.14c-17.11,19.46-33.73,37.33-38.97,37.33
			c-6.29-11.74,28.11-121.23,56.21-190.45c49.92,0.42,102.35-0.41,102.77,0c2.1,0.42,3.77,1.68,5.45,0
			c4.62-3.35-10.49-23.91-18.46-25.59l-0.84,0.42c-2.52-1.26-36.07-2.52-79.28,0.42c9.23-22.24,13.85-31.88,14.26-32.3
			c0.84-0.84,1.68-1.68,1.68-2.52c2.93-2.1,2.1-5.45,1.68-7.97c-17.62-10.49-51.6,6.29-58.31,23.49
			c-2.94,5.45-5.87,8.81-10.91,21.81c-7.97,0-19.71,0.84-32.72,1.68c17.2-37.34,53.69-93.55,54.54-94.39
			c0.84-0.84,1.67-1.26,1.67-2.1c2.1-2.1,2.1-4.62,1.68-6.71l-0.84-0.41l0.42-0.84c-10.07-7.55-59.98,0.84-68.38,11.75v1.26
			c-0.84,0.41-1.67,1.67-2.52,3.36c-20.55-8.81-50.34-14.27-71.31-6.71c-47.19,17.2-64.96,48.75-67.64,84.88
			c-9.94,4.79-38.79,20.46-47.09,25.44c9.23-33.97,18.88-64.18,14.26-74.67c-24.75-23.07-56.21-34.4-80.12-3.78
			c0.84-2.1,2.1-6.71,2.94-7.55c3.36-5.87,6.29-12.16-5.46-12.16c-15.94,0-36.91,8.39-42.79,18.46
			c-4.27,7.39-13.62,35.64-23.59,72.09c-17.7,23.48-42.69,58.37-50.23,58.37c-10.07-1.26,33.98-123.33,44.05-132.98
			c7.97-7.55,0.84-16.36-7.97-15.94c-11.75,0-27.27,0-39.01,9.65c-13.42-3.78-39.43-12.59-56.63-9.65
			c-26.91,4.44-51.98,54.74-64.42,100.57c-29.3,27.01-69.83,61.89-84.49,58.84c-12.59-2.52-9.65-37.34-3.36-49.5
			c60.82-12.16,83.06-53.27,84.32-73.83c1.26-20.14-40.27-36.08-58.73-36.08c-25.43,0-62.79,70.69-70.18,123.5
			c-16.77,17.86-32.51,33.39-37.2,33.39c-9.65-17.2,37.34-122.49,39.01-124.17c11.33-15.94-30.2-32.3-39.43-32.72
			c-13.01-0.84-31.04,15.94-45.72,29.37c22.23-67.12,46.56-130.04,54.95-136.75c9.65-7.97,4.2-15.1-6.29-14.68
			c-19.3,0.42-41.11,7.55-51.6,20.14c-9.52,11.48-42,118.98-60.45,199.33c-46.76,70.56-165.14,161.4-192.9,79.21
			c-22.23-66.7,65.44-210.16,128.37-258.82c-18.88,41.95-33.56,88.09-15.11,94.38c7.55,2.52,18.88,2.94,27.69-2.93
			c19.72-12.59-4.2-3.36,5.03-26.42c14.26-35.24,90.61-122.07,92.29-122.92c19.72-26-59.57-25.59-69.63-14.26
			c-1.26,2.1-2.52,3.36-4.2,5.45c-3.36,1.26-7.13,2.94-10.91,4.62c-9.23-9.65-26.01-12.59-39.01-5.03
			c-27.27,15.52-58.31,44.89-86.83,80.54c-84.74,57.89-174.93,128.36-195.48,149.76c-16.36,16.36-33.56,52.44,3.36,78.45
			c13.01-26.01,68.38-78.87,132.98-132.56c-36.07,78.45-43.21,160.66,22.24,204.3c13.84,9.22,28.94,13.42,44.05,13
			c54.1-1.2,112.29-57.11,150.19-109.39c-4.22,22.5-6.23,39.78-4.65,47.3c2.94,13.85,21.82,14.68,33.56,10.91
			c5.87-2.1,10.49-6.71,8.39-8.39c-10.91-9.65,15.94-85.57,23.49-104.03c6.29-15.94,34.81-53.69,49.08-55.79
			c-15.94,31.88-55.37,164.86-19.3,168.22c15.78,1.43,38.31-19.85,62.86-47.53c0.29,5.59,1.11,10.73,2.57,15.23
			c10.07,31.46,31.04,33.98,38.59,31.88c23.56,0,57.6-33.04,86.67-65.82c-2.22,13.26-2.99,25.11-1.95,33.94
			c2.1,19.3,13.42,33.14,38.59,31.88c15.1-0.42,30.62-20.56,44.47-35.23c-2.1,28.52,0,33.56,19.29,35.23
			c15.2,1.33,46.65-34.78,70.37-66.45c-12.4,50.33-23.64,107.46-25.07,147c-0.84,15.94-2.52,48.24,21.82,46.56
			c10.49-0.84,21.39-9.22,23.91-19.29c0.84-5.04-1.26-5.46-3.36-3.78c-5.03,3.91-6.77-0.99-6.28-11.55
			c28-24.94,89.1-40.25,144.5-55.56c-71.73,71.31-96.06,171.99,8.39,160.24c80.96-9.22,179.96-78.45,125.85-195.89
			c-24.33-52.86-63.34-115.36-18.04-150.6c11.33-8.81,25.59-10.48,39.85-0.42c-3.36,15.94-4.19,28.95-6.29,42.79
			c-15.1,0.84-38.59,0.42-38.59,20.56c0,13,13.85,26.01,28.94,26.42c13.85,0,28.53-7.55,36.91-28.52h36.5
			c-13.42,35.23-77.19,221.49-33.56,225.68c15.6,1.42,37.81-19.37,61.79-46.61c-0.3,5.48-0.23,10.46,0.28,14.72
			c2.1,19.3,13.42,33.14,38.59,31.88c15.1-0.42,30.63-20.56,44.47-35.23c-2.1,28.52,0,33.56,19.29,35.23
			c16.01,1.4,50.06-38.74,74.1-71.48c-7.05,39.72-6.45,69.85,10.63,71.48c15.41,1.4,37.25-18.85,60.88-45.57
			c0.36,4.99,1.14,9.61,2.46,13.69c10.07,31.46,31.04,33.98,38.59,31.88c36.5,0,98.16-79.28,127.52-114.1
			C1727.84,421.93,1726.58,416.89,1722.39,416.89z M1654.85,369.91c9.65,16.36-5.45,58.73-43.2,68.8
			C1625.07,413.53,1644.36,382.92,1654.85,369.91z M1507.19,315.8c1.26-1.68,10.07-2.94,23.07-3.36c-1.26,3.36-2.52,6.71-3.36,10.07
			C1517.26,319.99,1508.45,317.89,1507.19,315.8z M710.84,232.73c9.65,16.36-5.46,58.73-43.21,68.8
			C681.06,276.35,700.35,245.74,710.84,232.73z M826.61,333.83c-10.9,24.75-31.88,40.69-40.27,42.37
			c-18.46,3.78,24.33-167.8,70.47-141.37C849.68,251.19,832.06,305.72,826.61,333.83z M1090.25,551.13
			c-126.68,31.46,5.04-118.72,14.68-125.01c6.29-7.55,21.81-20.97-1.26-21.39c-47.33,3.46-130.23,19.72-171.83,35.66
			c13.21-60.6,36.82-142.02,39.06-148.5c3.36-10.08,34.82-69.22,51.6-57.89c5.87,4.2-6.29,52.44-17.2,88.09
			c-64.18,33.98-39.85,76.35-12.16,78.87c6.71,0.84,13.84,0.42,20.55-5.04c14.68-10.9,28.94-44.88,38.17-74.24
			c8.17-4.27,35.01-19.37,50.93-28.98c0.38,40.31,16.92,84.82,31.08,120.85C1167.86,498.69,1118.36,541.9,1090.25,551.13z
			 M998.59,341.8c-0.84,2.52-3.77,9.65-7.55,15.94c-3.77,7.55-8.81,14.26-12.58,13c-4.62-2.1-0.84-8.81,5.45-15.94
			C988.11,350.18,993.56,345.15,998.59,341.8z M1190.09,313.7c0.42-0.42,15.1-0.84,24.33-0.84
			C1211.48,334.25,1194.28,331.73,1190.09,313.7z M1396.88,471.01c-10.9,24.75-31.88,40.69-40.27,42.37
			c-18.46,3.78,24.33-167.8,70.47-141.37C1419.95,388.37,1402.33,442.9,1396.88,471.01z"/>
		<g>
			<g>
				<g>
					<path fill="#6B5341" d="M841.18,327.06c0,0-8.97,26.66-9.08,41.03c-0.37,46.82-18.63,94.24-53.41,125.58
						c-1.75,1.58-3.87,3.21-6.19,2.86c-1.1-0.17-2.07-0.76-3.01-1.35c-40.93-25.41-85.91-51.31-121.94-83.36
						c26.51-20.06,53.6-40.74,84.56-54c17.77-7.61,36.24-13.46,54.91-18.42C797.47,336.62,841.18,327.06,841.18,327.06z"/>
					<path d="M773.17,503.08c-0.53,0-1.08-0.04-1.65-0.12c-2.44-0.37-4.26-1.5-5.47-2.25c-5.98-3.71-12.05-7.44-18.16-11.19
						c-36.13-22.17-73.49-45.1-104.67-72.84c-1.45-1.29-2.25-3.17-2.18-5.11c0.08-1.94,1.02-3.75,2.57-4.93l1.44-1.09
						c26.23-19.85,53.36-40.37,84.49-53.7c16.13-6.91,34.38-13.03,55.79-18.73c10.49-2.79,52.67-12.02,54.46-12.41
						c2.29-0.5,4.67,0.27,6.23,2.01s2.07,4.19,1.32,6.41c-0.09,0.26-8.64,25.85-8.75,39.01c-0.4,50.63-21.17,99.37-55.56,130.36
						C781.45,499.93,777.95,503.08,773.17,503.08z M773.82,490.19L773.82,490.19L773.82,490.19z M657.85,412.17
						c29.12,24.71,63.51,45.81,96.84,66.27c6.13,3.76,12.22,7.5,18.22,11.22c0.07,0.04,0.16,0.1,0.25,0.16
						c0.27-0.2,0.65-0.5,1.17-0.98c31.73-28.6,50.9-73.76,51.26-120.8c0.07-9.28,3.42-22.82,6.1-32.24
						c-13.63,3.01-36.04,8.02-43.03,9.88c-20.81,5.54-38.48,11.46-54.02,18.12C706.89,375.69,681.92,393.99,657.85,412.17z"/>
				</g>
				<path fill="#DDD4BB" d="M939.8,529.2c-5.2-12.44-21.96-14.06-35.4-13.07c-25.77,1.91-61.91,8.27-101.29,16.91
					c-34.95-94.47-124.27-157.02-248.42-157.02c-161.99,0-293.3,117.5-293.3,262.45s103.51,255.09,265.5,255.09
					c51.38,0,199.88-17.8,243.74-113.31c1.03-2.25,2.18-4.82,3.41-7.63c18.39-12.13,36.19-25.17,53.28-39.07
					c39.3-31.96,75.82-69.75,94.59-116.8c8.68-21.77,13.31-44.9,17.9-67.88C941.11,542.36,942.38,535.36,939.8,529.2z"/>
				<g>
					<path fill="#6B5341" d="M499,829.42c-15.55-2.99-30.91-7.87-44.41-16.15c-16.27-9.98-29.29-24.54-40.18-40.22
						c-16.75-24.13-29.18-52.38-28.91-81.75c0.17-18.98,6.48-38.34,18.04-53.16c4.14-5.31-0.32-12.95-7-12.07
						c-44.77,5.9-92.21-8-125.78-38.4c-1.06-0.96-2.15-1.89-3.25-2.81c-4.02,17.31-6.14,35.25-6.14,53.63
						c0,144.95,103.51,255.09,265.5,255.09c51.38,0,199.88-17.8,243.74-113.31c1.03-2.25,2.18-4.82,3.41-7.63
						c0.86-0.57,1.72-1.15,2.58-1.72c-58.31,28.18-118.6,52.45-177.32,59.11C565.94,833.81,531.96,835.75,499,829.42z"/>
				</g>
				<g>
					<path fill="#6B5341" d="M581,425.68c8.24,8.51,15.72,17.79,22.07,27.8c3.9,6.15,9.6,25.93,15.53,29.21
						c13.34,7.38,21.67-47.93,22.85-59.76c1.17-11.85,1.11-23.86-0.44-35.63c-26.39-7.35-55.27-11.26-86.32-11.26
						c-14.41,0-28.56,0.95-42.41,2.74c4.43,1.96,8.82,4,13.14,6.21C545.92,395.47,564.96,409.11,581,425.68z"/>
				</g>
				<path fill="#6B5341" d="M560.26,515.62c-12.62-7.39-26.1-15.01-40.72-14.67c-19.78,0.45-37.35,17.01-41.03,36.45
					c-3.68,19.44,5.49,40.17,21.08,52.36c13.71,10.72,31.52,15.22,48.92,15.35c17.4,0.13,34.57-3.82,51.33-8.52
					c15.7-4.4,56.89-16.45,35.19-37.14C615.93,541.25,583.09,528.98,560.26,515.62z"/>
				<g>
					<path fill="#6B5341" d="M791.22,503.67c-7.63-16.32-26.86-26.96-44.41-22.9c-12.97,3-23.14,12.76-32.61,22.12
						c-17.13,16.94-43.33,35.16-56.06,55.51c-7.36,11.76,0.96,13.12,11.05,16.35c38.16-12.12,85.04-22.45,126.48-32.94
						C801.41,529.02,797.13,516.32,791.22,503.67z"/>
				</g>
				<g>
					<path d="M702.11,522.01c17.02-18.68,42.15-29.06,66.35-33.64c-16.94,6.32-32.58,15.69-45.36,28.2
						c-4.1,4.08-7.74,8.5-10.53,13.15c-1.85,3.09-5.86,4.1-8.96,2.25C700.11,529.93,699.38,525,702.11,522.01L702.11,522.01z"/>
				</g>
				<path d="M587.49,599.78c42.24-17.75,85.66-32.61,129.33-46.41c43.84-13.71,88.03-26.12,133.01-35.65
					c18.26-3.7,36.36-7.01,55.07-8.54c10.48-0.6,20.94-0.32,30.79,5.17c8.36,4.62,13.21,14.1,12.86,23.45
					c-0.07,7.37-2.13,14.61-3.36,21.68c-2.7,13.69-5.65,27.22-9.66,40.7c-20.86,72.26-82.34,127.01-143.66,166.43
					c-62.54,39.01-132.64,64.66-203.72,82.83c68.72-24.27,136.5-52.25,197.23-92.82c29.8-20.13,57.77-43.62,82.15-69.98
					c24.14-26.19,43.75-56.42,53.69-90.76c3.88-12.82,6.77-26.15,9.54-39.34c1.18-7.04,4.53-17.04,2.74-23.52
					c-3.21-10.2-18.43-10.43-27.72-10.07c-17.81,1.22-35.85,4.03-53.52,7.26c-35.82,6.49-71.35,15.11-106.67,24.02
					C692.71,567.93,639.43,582.8,587.49,599.78L587.49,599.78z"/>
				<g>
					<g>
						<path d="M684.55,539.74l4.45,22.05c14.54-4.09,29.57-8.16,44.71-12.07l-7.2-36.71L684.55,539.74z"/>
						<path d="M689,567.29c-1,0-2-0.27-2.87-0.81c-1.31-0.8-2.22-2.1-2.52-3.6l-4.45-22.05c-0.45-2.23,0.52-4.5,2.44-5.73
							l41.96-26.74c1.53-0.98,3.45-1.13,5.12-0.42c1.67,0.72,2.88,2.21,3.23,4l7.2,36.71c0.56,2.86-1.2,5.65-4.02,6.38
							c-14.93,3.87-29.94,7.92-44.6,12.04C690,567.22,689.5,567.29,689,567.29z M690.69,542.35l2.53,12.55
							c11.26-3.14,22.68-6.22,34.1-9.2l-4.65-23.72L690.69,542.35z"/>
					</g>
				</g>
				<g>
					<polygon fill="#FFFFFF" points="769.31,695.96 795.66,746.46 800.93,685.86 					"/>
					<path d="M795.65,749.46c-1.1,0-2.13-0.61-2.66-1.61l-26.35-50.5c-0.41-0.79-0.45-1.71-0.11-2.53s1.02-1.45,1.86-1.72
						l31.62-10.1c0.96-0.31,2-0.11,2.79,0.51s1.2,1.6,1.12,2.6l-5.27,60.6c-0.12,1.33-1.09,2.42-2.4,2.68
						C796.05,749.44,795.85,749.46,795.65,749.46z M773.61,697.73l19.94,38.22l3.99-45.87L773.61,697.73z"/>
				</g>
				<path d="M936.14,598.29c-0.67,1.43-1.99,4.47-2.62,5.82c-0.55,1.06-2.46,4.44-3.06,5.57c-0.81,1.3-2.68,4.07-3.46,5.29
					c-0.75,0.97-3.01,3.98-3.81,5c-1.12,1.23-3.04,3.56-4.11,4.7c-18.98,20.08-44.48,32.32-69.32,43.32
					c-119.12,53.41-253.34,72.77-382.7,55.86c103.28,10.73,208.79-1.4,306.77-35.6c24.29-8.42,48.57-18.31,71.67-29.48
					c16.13-7.65,32.3-15.7,46.61-26.27c1.78-1.24,4.21-3.25,5.92-4.58c2.62-2.2,5.79-5.06,8.23-7.47c0,0,2.51-2.67,2.51-2.67
					s1.25-1.34,1.25-1.34c1.11-1.26,2.45-3,3.49-4.2c0,0,2.12-2.93,2.12-2.93s1.06-1.46,1.06-1.46c0.86-1.36,2.03-3.29,2.83-4.58
					c0,0,1.63-3.17,1.63-3.17s0.82-1.58,0.82-1.58c0.65-1.52,1.45-3.5,2.06-4.92C924.02,593.59,936.14,598.29,936.14,598.29
					L936.14,598.29z"/>
				<path d="M428.46,745.09c29.16-10.56,52.38-33.95,62.79-63.15C487.95,713.63,460.12,741.59,428.46,745.09L428.46,745.09z"/>
				<g>
					<g>
						<path d="M574.79,596.07L574.79,596.07c-12.75,0-23.08-10.33-23.08-23.08v-48.03l46.32,18.16l-0.17,29.86
							C597.86,585.74,587.53,596.07,574.79,596.07z"/>
						<path d="M574.79,601.57c-15.76,0-28.58-12.82-28.58-28.58v-48.03c0-1.82,0.9-3.52,2.4-4.54c1.5-1.02,3.41-1.24,5.11-0.58
							l46.32,18.16c2.12,0.83,3.5,2.88,3.49,5.15l-0.17,29.86C603.36,588.75,590.54,601.57,574.79,601.57z M557.21,533.03v39.96
							c0,9.69,7.89,17.58,17.58,17.58s17.58-7.89,17.58-17.58l0.15-26.12L557.21,533.03z"/>
					</g>
					<path d="M568.61,538.7c-7.58-8.35-17.88-14.62-28.28-19.4c-10.84-4.92-22.47-8.51-34.52-10.43c18.43-0.29,37.39,3,54.59,10.37
						c5.86,2.57,11.62,5.72,17,9.87c2.9,2.19,3.46,6.33,1.24,9.2C576.2,541.53,571.27,541.71,568.61,538.7L568.61,538.7z"/>
				</g>
				<path d="M526.89,900.08c-40.34,0-78.08-6.7-112.17-19.91c-32.9-12.75-61.8-31.31-85.89-55.16
					c-47.67-47.19-73.93-113.43-73.93-186.52c0-71.98,31.28-139.61,88.07-190.43c56.59-50.64,131.79-78.53,211.73-78.53
					c119.87,0,213.81,58.19,252.5,155.98c40.19-8.67,73.55-14.14,96.73-15.86c27.85-2.07,38.15,8.13,41.88,17.04h0
					c3.43,8.2,1.67,17.03,0.38,23.48c-4.58,22.92-9.31,46.63-18.24,69.01c-16.49,41.33-47.16,79.28-96.53,119.43
					c-16.63,13.52-34.18,26.43-52.2,38.4c-0.98,2.22-1.88,4.23-2.69,5.97c-10.65,23.2-27.97,43.57-51.46,60.55
					c-19.63,14.19-43.66,26.09-71.43,35.37C606.93,894.52,557.54,900.08,526.89,900.08z M554.69,382.53
					c-76.74,0-148.86,26.71-203.06,75.21c-54,48.32-83.74,112.51-83.74,180.74c0,69.59,24.89,132.56,70.08,177.28
					c47.13,46.65,112.46,71.31,188.92,71.31c10.23,0,64.25-0.99,122.63-20.5c58.26-19.47,97.02-49.42,115.2-89.02
					c0.98-2.13,2.11-4.66,3.37-7.53l0.77-1.76l1.6-1.06c18.22-12.02,35.97-25.04,52.76-38.69c47.58-38.7,77.02-74.97,92.65-114.16
					c8.49-21.28,13.1-44.39,17.56-66.74c1.24-6.23,2.13-11.72,0.38-15.92h0c-3.96-9.48-19.82-9.77-28.92-9.09
					c-23.62,1.75-58.33,7.55-100.37,16.78l-5.53,1.21l-1.96-5.31c-17.02-46-47.52-84.29-88.21-110.74
					C666.52,397.07,613.22,382.53,554.69,382.53z"/>
				<g>
					<path fill="#2B1D0F" d="M181.83,411.53c26.78,36,19.27,89.35,46.2,125.23c16.7,22.25,44.39,34.03,71.95,37.85
						c1.99,0.28,67.29-48.8,71.44-53.88c14.16-17.32-13.36-32.16-3.95-52.7c11.37-24.83,7.44-33.47-13.58-35.97
						c-26.9-3.2-53.81-6.42-80.71-9.63C242.73,418.79,212.28,415.16,181.83,411.53z"/>
					<path d="M300.16,581.14c-0.37,0-0.71-0.05-1.07-0.1c-33.06-4.58-60.14-18.92-76.25-40.38c-14.35-19.12-19.44-42.58-24.35-65.26
						c-4.81-22.2-9.35-43.17-21.87-60c-1.55-2.08-1.71-4.89-0.41-7.14s3.82-3.5,6.4-3.2l118.24,14.11
						c17.93,2.14,35.87,4.29,53.8,6.42c8.34,0.99,18.52,3.2,23.2,11.54c4.21,7.5,2.87,17.55-4.47,33.59
						c-3.26,7.13-0.24,13.6,3.27,21.1c4.34,9.29,9.75,20.84-0.2,33.01c-3.21,3.93-27.4,22.31-37.65,30.02
						C307.44,578.49,302.94,581.14,300.16,581.14z M194.55,419.59c8.71,16.46,12.73,35.01,16.64,53.06
						c4.83,22.3,9.4,43.36,22.04,60.21c7.98,10.63,27.03,29.13,65.6,35.01c10.64-6.71,63.33-46.61,67.62-51.33
						c4.3-5.26,2.99-9.45-1.58-19.2c-4.05-8.65-9.08-19.42-3.31-32.02c6.39-13.95,6.22-19.57,4.96-21.82
						c-1.36-2.42-5.86-4.09-13.4-4.99c-17.94-2.13-35.87-4.28-53.81-6.42L194.55,419.59z"/>
				</g>
				<g>
					
						<ellipse transform="matrix(0.9659 -0.259 0.259 0.9659 -111.7339 255.44)" fill="#BF57A1" cx="913.71" cy="551.83" rx="60.58" ry="45.4"/>
					<path d="M905.25,604.89c-27.19,0-50.46-13.78-56.34-35.69c-7.41-27.64,15.63-57.93,51.35-67.5
						c35.73-9.58,70.82,5.12,78.24,32.76l0,0c3.68,13.74,0.14,28.41-9.99,41.3c-9.69,12.34-24.38,21.65-41.36,26.2
						C919.75,603.95,912.36,604.89,905.25,604.89z M922.46,511.73c-6.08,0-12.43,0.81-18.82,2.53
						c-28.8,7.72-47.72,30.86-42.16,51.58c5.55,20.72,33.51,31.29,62.31,23.57c14.28-3.83,26.54-11.53,34.5-21.67
						c7.54-9.6,10.26-20.22,7.66-29.91l0,0C961.63,521.71,943.75,511.73,922.46,511.73z"/>
				</g>
				<g>
					<g>
						<path fill="#6B5341" d="M353.88,432.06c-26.91-3.2-53.81-6.42-80.71-9.63c-27.26-3.25-54.52-6.51-81.78-9.76l2.67,2.54
							c19.1,14.36,42.69,21.21,65.88,26.99c23.19,5.78,46.94,10.91,67.8,22.57c13.06,7.3,34.5,43.4,42.35,55.97
							c8.11-9.96,10.54-40.84,11.21-57.13C382.44,436.32,374.91,434.56,353.88,432.06z"/>
						<path d="M370.1,527.23c-0.14,0-0.27,0-0.41-0.01c-2.09-0.13-4-1.26-5.11-3.04c-0.72-1.15-1.55-2.5-2.48-4
							c-7.42-12.01-27.14-43.93-37.53-49.74c-18.06-10.09-39.07-15.25-59.38-20.25c-2.28-0.56-4.55-1.12-6.82-1.69
							c-23.34-5.81-47.83-12.77-68.21-28.1c-0.2-0.15-0.39-0.31-0.57-0.48l-2.67-2.54c-2.03-1.93-2.6-4.94-1.41-7.48
							c1.19-2.54,3.86-4.02,6.65-3.69l108.62,12.97c17.95,2.14,35.91,4.29,53.86,6.43l0,0c10.05,1.2,19.54,2.33,25.74,8.23
							c5.92,5.64,8.07,14.34,7.42,30.04c-0.9,21.82-3.83,50.11-12.67,60.96C373.9,526.36,372.05,527.23,370.1,527.23z
							 M219.83,422.61c13.35,5.91,27.72,9.8,41.68,13.28c2.26,0.56,4.52,1.12,6.78,1.67c21.15,5.2,43.03,10.58,62.62,21.52
							c6.56,3.67,15.8,12.16,38.34,47.98c2.79-9.79,4.8-25.24,5.56-43.73c0.46-11.06-0.62-17.45-3.4-20.09
							c-2.85-2.71-9.1-3.63-18.31-4.73c-17.96-2.14-35.91-4.28-53.87-6.43L219.83,422.61z"/>
					</g>
				</g>
				<g>
					<path fill="#DDD4BB" d="M305.65,585.45c1.84-16.99-1.37-34.49-9.12-49.72c13.89,17.82,39.57,25.38,60.89,17.93
						c-16.71-6.04-31.55-17.14-42.09-31.45c8.15-0.06,15.64,4.1,23.37,6.69c15.46,5.17,32.22,4.07,48.47,2.92"/>
					<path d="M305.65,585.45c-0.38-12.82-2.84-25.08-7.73-36.72c-3.04-8.08-20.28-35.88-24.67-43.83
						c1.43,1.52,28.9,30.1,29.54,30.79c0,0,2.86,2.53,2.86,2.53l3.03,2.31c13.33,9.28,31.22,12.42,46.6,7.01
						c0,0-0.07,12.21-0.07,12.21c-17.89-6.4-33.69-18.53-44.4-34.21c0,0-6.37-9.29-6.37-9.29l10.85,0.35
						c10.01,0.18,18.49,5.83,27.49,9.1c14.23,5,29.44,5.13,44.4,6.12c-15.27,3.21-31.18,5.45-46.72,2.08
						c-8.46-1.7-16.46-6.32-25.09-6.07c0,0,4.48-8.94,4.48-8.94c7.76,9.72,17.54,17.79,28.49,23.65c6.97,3.88,20.7,8.44,28.23,11.37
						c0,0-17.02,5.88-17.02,5.88c-6.03,2.08-12.36,3.1-18.64,3.06c-14.04-0.01-27.91-5.07-38.63-14.08c0,0-3.42-3.13-3.42-3.13
						l-3.12-3.42l-2.82-3.67c0,0,7.67-4.88,7.67-4.88C307.72,549.74,309.87,568.44,305.65,585.45L305.65,585.45z"/>
				</g>
				<path d="M887.03,541.16c-3.39,3.67-6.13,7.37-8.25,11.71c-1.1,2.35-2.44,5.13-2.14,7.57c1.59,9.68,15.82,11.53,23.72,13.94
					c6.18,1.57,12.5,2.72,19.13,4.03c-6.46,2.05-13.3,2.6-20.08,2.19c-10.43-0.9-23.6-2.97-28.55-13.75
					c-2.29-4.73-1.27-10.67,1.93-14.74C876.24,547.14,881.31,543,887.03,541.16L887.03,541.16z"/>
			</g>
			<g>
				<path fill="#6B5341" d="M273.04,679.37c-14.75,1.32-27.02-0.17-41.22-4.37c13.99,12.35,27.51,27.51,44.93,35.04
					c-18.53-3.02-37.05-6.04-55.58-9.06c13.89,22.54,40.21,31.51,67.06,35.1c-15.97,1.3-29.47,9.57-45.44,10.87
					c18.4,8.71,38.32,14.2,58.58,16.12"/>
				<path d="M273.04,679.37c-13.89,2.85-28.39,2.07-42.14-1.25c0,0,3.08-5.56,3.08-5.56c11.06,8.78,21.29,18.76,33.17,26.29
					c3.81,2.42,7.76,4.49,11.81,6.11l41.95,16.73c0,0-45.03-6.2-45.03-6.2c-12.98-1.76-28.94-4.04-41.81-6.02
					c-4.64-0.71-9.28-1.39-13.91-2.15l6.52-9.74c13.17,21.16,38.89,28.99,62.34,32.77c0,0,52.72,8.67,52.72,8.67
					s-53.02,2.78-53.02,2.78c-10.75,0.52-22.2,5.17-33.23,7.56c-3.99,0.89-8.14,1.5-12.34,1.66l1.43-7.8
					c16.63,8.87,34.61,15.19,53.07,19.06c0,0,3.75,0.77,3.75,0.77c-4.83,0.01-10.56-0.27-15.36-0.8
					c-10.27-1.07-20.44-3.19-30.32-6.26c-8.58-2.46-20-7.67-28.34-11.14c7.1-1.08,19.06-2.06,25.79-4.44
					c11.38-3.55,22.42-8.9,34.62-10.09c0,0-0.3,11.46-0.3,11.46c-6.67-0.71-13.35-1.85-19.99-3.42
					c-20.36-4.74-40.73-15.49-51.79-34.01c0,0-7.34-12-7.34-12c18.03,2.88,37.5,6.31,55.45,9.62c0,0,13.84,2.61,13.84,2.61
					l-3.08,10.53c-18.14-8.41-31.02-23.98-44.89-37.68c0,0-10.97-10.71-10.97-10.71c6.4,2.29,17.37,6.59,23.76,8.32
					C252.38,677.96,262.69,679.25,273.04,679.37L273.04,679.37z"/>
			</g>
		</g>
		<path d="M815.04,615.1c-6.79,1.86-13.43,3.4-20.19,5.08c-0.93,0.32-23.7,6.12-25.52,6.6c-15.1,4.04-30.62,6.47-45.76,10.38
			c-30.33,8.18-60.6,17.69-89.52,30.05c0,0-0.59-1.16-0.59-1.16c20.56-12.11,42.45-21.89,64.63-30.67
			c14.53-5.54,30.49-11.02,45.22-15.83c15.33-4.84,31.4-7.34,47.49-7.72c8.1-0.21,16.28,0.36,24.23,1.96
			C815.02,613.8,815.04,615.1,815.04,615.1L815.04,615.1z"/>
		<path d="M806.26,603.91c-15.82,0.6-31.58-0.35-47.31-1.62c-8.94-0.82-18.9-2.49-27.88-2.93c-11.76-0.58-25.8-0.58-37.56-0.02
			c-12.56,0.57-25.12,1.89-37.67,3.7c0,0-0.29-1.27-0.29-1.27c15.06-4.77,31.04-8.15,46.77-10.34c12.24-1.74,26.18-2.43,38.48-2.85
			c5.71-0.15,13.77-0.33,19.39,0.2c9.67,0.93,19.2,3.09,28.44,6.05c6.19,2.12,12.23,4.55,17.94,7.8
			C806.57,602.65,806.26,603.91,806.26,603.91L806.26,603.91z"/>
		<path d="M811.78,631.97c-14.31,6.59-29.37,11.8-44.32,16.63c-8.57,2.67-18.41,4.94-26.87,7.98c-11.08,3.97-24.05,9.35-34.7,14.38
			c-11.38,5.34-22.48,11.37-33.38,17.86c0,0-0.75-1.06-0.75-1.06c12.08-10.17,25.54-19.43,39.24-27.47c0,0,8.39-4.74,8.39-4.74
			c4.26-2.26,12.91-6.57,17.28-8.59c5.08-2.32,12.46-5.7,17.67-7.95c8.98-3.73,18.43-6.12,28.03-7.56
			c9.68-1.34,19.48-1.94,29.22-0.75C811.58,630.69,811.78,631.97,811.78,631.97L811.78,631.97z"/>
	</g>
</g>
</svg>
